<svg aria-hidden="true" xmlns="http://www.w3.org/2000/svg" viewBox="0 0 17 17" fill="none"><path stroke="currentColor" stroke-width="var(--icon-stroke-width)" stroke-linecap="round" stroke-linejoin="round" d="M8.5 16.5C12.9182 16.5 16.5 12.9182 16.5 8.5C16.5 4.08172 12.9182 0.5 8.5 0.5C4.08172 0.5 0.5 4.08172 0.5 8.5C0.5 12.9182 4.08172 16.5 8.5 16.5Z"/><path stroke="currentColor" stroke-width="var(--icon-stroke-width)" stroke-linecap="round" stroke-linejoin="round" d="M0.9 8.9 5.3 10.5 4.5 13.3 5.3 15.7"/><path stroke="currentColor" stroke-width="var(--icon-stroke-width)" stroke-linecap="round" stroke-linejoin="round" d="M12.5 15.3 12.1 13.3 10.1 12.5V9.7L12.5 8.9 16.1 9.3"/><path stroke="currentColor" stroke-width="var(--icon-stroke-width)" stroke-linecap="round" stroke-linejoin="round" d="M14.1 3.3 13.7 4.5 10.9 4.9V7.3L12.9 6.5H14.5L16.1 7.3"/><path stroke="currentColor" stroke-width="var(--icon-stroke-width)" stroke-linecap="round" stroke-linejoin="round" d="M0.9 7.3 2.9 5.7 4.9 5.3 6.5 2.9 5.7 1.3"/></svg>
